# xmcd
#
# Track frame offsets: 
#        150
#        27003
#        44930
#        64948
#        84085
#        117903
#        146188
#
# Disc length: 2319 seconds
#
# Revision: 1
# Processed by: cddbd v1.5.2PL0 Copyright (c) Steve Scherf et al.
# Submitted via: ExactAudioCopy v0.95b4
#
DISCID=60090d07
DTITLE=Jimmy Smith - Bashin' The Unpredictable Jimmy Smith (Gold)
DYEAR=1962
DGENRE=Jazz
TTITLE0=Walk On The Wild Side
TTITLE1=Ol' Man River
TTITLE2=In A Mellotone
TTITLE3=Step Right Up
TTITLE4=Beggar For The Blues
TTITLE5=Bashin'
TTITLE6=I'm An Old Cowhand (From The Rio Grande)
EXTD=YEAR: 1994
EXTT0=
EXTT1=
EXTT2=
EXTT3=
EXTT4=
EXTT5=
EXTT6=
PLAYORDER=
